<svg width="55" height="55" viewBox="0 0 55 55" fill="none" xmlns="http://www.w3.org/2000/svg">
<path d="M27.4999 4.5835C24.4905 4.5835 21.5105 5.17625 18.7301 6.32792C15.9497 7.47959 13.4234 9.16762 11.2954 11.2956C6.99768 15.5933 4.58325 21.4223 4.58325 27.5002C4.58325 37.6293 11.1603 46.2231 20.2583 49.271C21.4041 49.4543 21.7708 48.7439 21.7708 48.1252V44.2522C15.4228 45.6272 14.0708 41.1814 14.0708 41.1814C13.0166 38.5231 11.527 37.8127 11.527 37.8127C9.44159 36.3918 11.6874 36.4377 11.6874 36.4377C13.9791 36.5981 15.1937 38.7981 15.1937 38.7981C17.1874 42.2814 20.5562 41.2502 21.8624 40.7002C22.0687 39.2106 22.6645 38.2022 23.3062 37.6293C18.2187 37.0564 12.8791 35.0856 12.8791 26.3543C12.8791 23.8106 13.7499 21.771 15.2395 20.1439C15.0103 19.571 14.2083 17.1877 15.4687 14.0939C15.4687 14.0939 17.3937 13.4752 21.7708 16.4314C23.5812 15.9272 25.552 15.6752 27.4999 15.6752C29.4478 15.6752 31.4187 15.9272 33.2291 16.4314C37.6062 13.4752 39.5312 14.0939 39.5312 14.0939C40.7916 17.1877 39.9895 19.571 39.7603 20.1439C41.2499 21.771 42.1208 23.8106 42.1208 26.3543C42.1208 35.1085 36.7583 37.0335 31.6478 37.6064C32.4728 38.3168 33.2291 39.7147 33.2291 41.846V48.1252C33.2291 48.7439 33.5958 49.4772 34.7645 49.271C43.8624 46.2002 50.4166 37.6293 50.4166 27.5002C50.4166 24.4907 49.8238 21.5107 48.6722 18.7303C47.5205 15.95 45.8325 13.4236 43.7044 11.2956C41.5764 9.16762 39.0501 7.47959 36.2697 6.32792C33.4894 5.17625 30.5094 4.5835 27.4999 4.5835Z" fill="#833B9C"/>
</svg>
